<?xml version="1.0" encoding="UTF-8"?>
<svg version="1.1" viewBox="0 0 1600 1600" width="1280" height="1280" xmlns="http://www.w3.org/2000/svg">
<path transform="translate(252 947)" d="m0 0c47.4-0.827 93 12.7 131 40.3 6.03 4.27 12 8.09 19.7 6.82 3.89-2.01 7.42-4.48 11-7 33.5-23.7 72.4-40.1 114-40.2 0.84-0.00333 1.68-0.00666 2.54-0.0101 1.77-0.00503 3.53-0.00741 5.3-0.00725 2.65-0.00217 5.3-0.0203 7.96-0.0393 13.2-0.0442 25.9 1 38.8 3.97 1.12 0.256 1.12 0.256 2.25 0.517 37.6 8.86 74.7 25.8 105 49.7 1.12 0.862 2.23 1.72 3.35 2.58 6.91 5.34 13.6 10.9 20.2 16.6 3.02 2.68 3.02 2.68 6.44 4.8v2h2c0.33 1.98 0.66 3.96 1 6-4.95-0.483-8.27-1.37-12.4-4.06-0.529-0.337-1.06-0.673-1.6-1.02-3.9-2.51-7.73-5.11-11.6-7.69-10.6-7.15-21.2-14.2-32.5-20.2-1.93-1.04-3.84-2.11-5.75-3.2-23.9-13.4-51.1-23-78.1-27.8-0.83-0.15-1.66-0.299-2.51-0.453-46.1-7.96-102-1.01-141 26-6.62 4.65-6.62 4.65-12.1 10.5-0.257 1.9-0.505 3.8-0.602 5.71-0.842 4.85-3.67 9.26-6.4 13.3-6.68 4.46-16.6 3.09-24.4 3.12-1.15 0.00701-1.15 0.00701-2.33 0.0142-7.6-0.0216-7.6-0.0216-11.2-1.14-3.86-3.96-5.26-7.58-6.72-12.9-2.32-8.81-2.32-8.81-8.81-14.8-1.22-0.63-1.22-0.63-2.47-1.27-1-0.606-2-1.21-3.03-1.84-21.2-12.7-43.8-21.2-68-26.2-0.762-0.165-1.52-0.33-2.31-0.5-33.3-7.04-69.6-2.72-102 7.5-0.69 0.218-1.38 0.437-2.09 0.662-30.7 9.99-57.9 27.7-82.8 47.7-7.2 5.72-12.2 8.11-21.4 7.82-0.831-0.0135-1.66-0.0271-2.52-0.041-2.04-0.0351-4.07-0.0889-6.11-0.146 3.71-10.5 13.2-16.9 22-23 0.922-0.646 0.922-0.646 1.86-1.31 4.68-3.27 9.41-6.49 14.1-9.69 0.639-0.435 1.28-0.87 1.94-1.32 9.16-6.23 18.5-12.1 28.1-17.7 0.646-0.38 1.29-0.761 1.96-1.15 15-8.82 30.5-15.4 47-20.8 0.665-0.224 1.33-0.449 2.02-0.68 19.8-6.59 40.1-8.78 60.8-9.44z" fill="#0A0503"/>
<path transform="translate(698,709)" d="m0 0c0.66 0.33 1.32 0.66 2 1-1.59 5.16-4.82 8.85-8.12 13-17.2 22.1-28.3 46.1-31.9 74-0.166 1.18-0.333 2.35-0.504 3.56-0.874 7.66-0.511 15.2 2.5 22.4 2 1.41 2 1.41 4 2 3.34-2.09 5.86-3.85 8.56-6.75 2.44-2.25 2.44-2.25 5.25-2.56 0.722 0.103 1.44 0.206 2.19 0.312 1.14 1.73 1.14 1.73 2 4-0.828 2.14-0.828 2.14-2.25 4.25-0.459 0.706-0.918 1.41-1.39 2.14-0.449 0.531-0.897 1.06-1.36 1.61h-2c-0.241 0.596-0.482 1.19-0.73 1.8-1.52 2.63-3.03 3.68-5.58 5.32-0.759 0.498-1.52 0.995-2.3 1.51-5.01 2.87-9.58 4.29-15.4 3.37-6.08-3.16-9.58-7.13-11.8-13.6-6.07-24.9 5.56-53.8 14.8-76.4-4.79 2.93-8.42 6.23-12.2 10.4-0.563 0.614-1.13 1.23-1.71 1.86-5.23 5.77-10 11.8-14.8 18-1.34 1.73-2.71 3.43-4.08 5.13-10.7 13.2-19.4 27.6-27.9 42.4-0.52 0.896-1.04 1.79-1.58 2.71-0.459 0.798-0.918 1.6-1.39 2.42-1.31 2.01-2.52 3.55-4.36 5.09-2.66 0.547-2.66 0.547-5.62 0.75-0.982 0.0773-1.96 0.155-2.98 0.234-0.791 0.00516-1.58 0.0103-2.4 0.0156-1.72-1.72-1.17-3.96-1.19-6.31 0.0596-6.41 0.968-12.4 2.25-18.7 0.325-1.64 0.325-1.64 0.657-3.32 2.64-13 5.93-25.8 9.28-38.7-3.98 1.33-5.49 3.93-7.88 7.19-6.71 9-6.71 9-10.1 12.8h-2c-0.276 0.592-0.552 1.18-0.836 1.79-3.07 5.82-8.09 10.2-13.1 14.4-1.39 1.19-2.76 2.42-4.09 3.67-13.7 12.8-29.9 21.3-48 26.1-0.771 0.227-1.54 0.454-2.34 0.688-13.6 3.43-29.6 2.89-41.9-3.94-8.32-5.56-13.4-13.9-15.4-23.6-1.28-10.6 0.659-19.3 6.62-28.1 4.51-5.34 9.99-8.95 17-10 2.27 0.438 2.27 0.438 4 1-0.554 3.89-1.63 6.28-3.94 9.44-4.8 7.01-5.98 13.1-5.06 21.6 1.82 7.1 5.29 14.2 11.8 18.1 13.4 6.1 28 2.54 41.2-2.06 21.1-8.09 39.9-24.7 54-42 1.13-1.31 1.13-1.31 2.28-2.66 5.4-6.33 10.3-12.9 15.1-19.7 3.27-4.65 6.64-9.22 10-13.8 4.11-4.95 4.11-4.95 5.58-10.9-4.52-0.986-9.03-1.96-13.5-2.94-1.53-0.331-3.06-0.663-4.6-0.998-12.3-2.69-12.3-2.69-24.9-4.07-1.41-0.0831-1.41-0.0831-2.85-0.168-9.94-0.0876-18.4 1.58-25.7 8.71-4.21 5.05-6.55 11-8.88 17.1-0.824 2.06-0.824 2.06-2.53 5.37-2.11 0.707-2.11 0.707-4 1-2.39-3.59-2.58-5.87-2-10 3.23-13.2 9.83-23.3 21.5-30.5 22.3-11.8 50.6-4.46 73.8 1.04 1.25 0.297 2.5 0.593 3.79 0.899 5.91 1.45 11.5 2.94 17 5.6-1.6 4.63-4.1 8.42-6.75 12.5-10.3 16.2-16.4 33.8-20.2 52.5-0.393 1.77-0.789 3.54-1.19 5.31-0.268 1.22-0.536 2.43-0.812 3.69 4.08-1.54 5.84-4.1 8.38-7.56 8.78-11.7 18.1-23 28.1-33.7 2.35-2.52 4.61-5.1 6.88-7.69 9-9.99 19.2-18.6 29.9-26.7 1.69-1.29 3.37-2.58 5.05-3.88 13.5-10.4 13.5-10.4 20.7-8.42z" fill="#0A0503"/>
<path transform="translate(87,752)" d="m0 0h2c0.59 14.1-1.08 28.1-2.48 42.1-0.348 3.5-0.687 7-1.03 10.5-0.556 5.72-1.12 11.4-1.68 17.2-1.18 12-2.35 24-3.5 36-0.104 1.08-0.208 2.16-0.315 3.28-1.5 15.7-2.71 31.4-3.73 47.2-0.825 12.6-1.92 25.2-3.33 37.7-0.0823 0.738-0.165 1.48-0.249 2.24-0.974 8.65-2.15 17.3-3.69 25.8 5.2-2.5 10-5.2 14.8-8.5 20.6-14 42.4-25.7 65.2-35.5 0.743-0.317 1.49-0.634 2.25-0.961 58.9-24.8 129-31.6 190-8.04 13.3 5.45 26.3 12.3 37 22v2c-3.46-0.58-6.28-1.46-9.41-3.04-0.833-0.412-1.67-0.825-2.53-1.25l-2.69-1.34c-57.2-27.7-121-25.6-180-5.41-46.1 16.1-86.5 44.2-124 75.3-2.25 1.7-2.25 1.7-4.25 1.7 0.497-14.2 1.81-28.1 3.62-42.1 0.266-2.1 0.532-4.2 0.797-6.31 0.561-4.44 1.13-8.88 1.7-13.3 0.894-6.98 1.78-14 2.66-20.9 0.147-1.17 0.295-2.33 0.446-3.53 0.298-2.35 0.595-4.71 0.893-7.06 0.446-3.53 0.893-7.06 1.34-10.6 2.49-19.6 4.9-39.2 7.27-58.9 0.456-3.77 0.913-7.54 1.37-11.3 0.67-5.52 1.34-11 2.01-16.6 0.151-1.25 0.303-2.5 0.459-3.78 0.285-2.35 0.57-4.7 0.854-7.05 0.713-5.88 1.43-11.8 2.15-17.6 0.196-1.6 0.391-3.2 0.584-4.79 2.95-24.4 2.95-24.4 5.85-35.1z" fill="#0A0503"/>
<path transform="translate(262 577)" d="m0 0c0.824 0.00182 1.65 0.00365 2.5 0.00552 21.2 0.0787 41.6 2.28 62 8.31 0.774 0.226 1.55 0.451 2.35 0.684 17.5 5.2 33.2 13.6 48.7 23.3 0.653 0.385 1.31 0.77 1.98 1.17 0.624 0.395 1.25 0.79 1.89 1.2 0.555 0.339 1.11 0.679 1.68 1.03 4.01 4.46 3.73 11.3 3.69 16.9 0.00256 1.22 0.00256 1.22 0.00518 2.46 0.00328 2.7-0.00768 5.4-0.0186 8.1-5.64e-4 1.94-2.47e-4 3.88 8.85e-4 5.83 5.73e-4 5.26-0.0112 10.5-0.0251 15.8-0.0125 5.5-0.0137 11-0.0161 16.5-0.00621 10.4-0.0226 20.8-0.0427 31.2-0.0224 11.9-0.0334 23.7-0.0434 35.6-0.0209 24.4-0.0561 48.8-0.101 73.2-0.99-0.33-1.98-0.66-3-1-2.14-13.3-2.95-26.8-3.89-40.2-0.523-7.48-1.06-15-1.61-22.4-0.0865-1.19-0.0865-1.19-0.175-2.41-1.77-24.4-3.78-48.8-5.78-73.1-0.297-3.63-0.593-7.26-0.888-10.9-0.202-2.47-0.406-4.95-0.61-7.42-0.126-1.54-0.251-3.08-0.376-4.62-0.0903-1.1-0.0903-1.1-0.182-2.23-0.301-3.78-0.553-7.56-0.736-11.3-0.0576-1.16-0.0576-1.16-0.116-2.34-0.0695-1.46-0.132-2.92-0.185-4.37-0.185-3.9-0.677-7.06-2.46-10.6-1.77-1.62-1.77-1.62-3.97-2.83-0.808-0.484-1.62-0.969-2.45-1.47-1.31-0.749-1.31-0.749-2.64-1.51-0.902-0.526-1.8-1.05-2.73-1.59-19.7-11.3-40.8-19.5-63.2-23.6-0.917-0.177-1.83-0.355-2.78-0.537-10.6-1.8-21.2-1.8-31.9-1.78-3.16 0.00313-6.32-0.0203-9.48-0.0457-42.4-0.132-84.7 10.8-121 32.2-2.43 1.12-2.43 1.12-5.43 0.117 27.6-26.7 68.9-39.7 106-45 1.25-0.177 2.5-0.355 3.79-0.537 10.6-1.42 21-1.82 31.7-1.78z" fill="#0A0503"/>
<path transform="translate(721,883)" d="m0 0c5.71 0.714 5.71 0.714 7 2 0.45 2.98 0.842 5.96 1.2 8.95 0.116 0.94 0.231 1.88 0.35 2.85 0.384 3.13 0.761 6.26 1.14 9.38 0.265 2.17 0.53 4.34 0.796 6.52 0.557 4.57 1.11 9.13 1.66 13.7 0.706 5.83 1.42 11.7 2.13 17.5 0.68 5.57 1.36 11.1 2.04 16.7 0.129 1.06 0.257 2.11 0.39 3.2 0.367 3.02 0.733 6.04 1.1 9.06 0.107 0.879 0.214 1.76 0.324 2.66 1.07 8.88 2.04 17.6 1.94 26.6-0.00451 0.766-0.00902 1.53-0.0137 2.32-0.0116 1.85-0.0295 3.7-0.0488 5.55-4.13-2.34-7.8-5.1-11.5-8.06-1.25-0.99-2.5-1.98-3.75-2.97-1.81-1.43-3.61-2.86-5.42-4.3-8.48-6.7-17.3-12.8-26.3-18.7-0.584-0.38-1.17-0.76-1.77-1.15-3.46-2.25-6.93-4.48-10.4-6.69-1.9-1.21-3.8-2.44-5.69-3.66-8.45-5.42-17-10.2-26.1-14.5-2.04-0.974-4.08-1.97-6.11-2.96-58.8-28.5-127-38.5-190-17.4-9.87 3.46-19.1 7.8-28.2 12.9-0.824 0.459-1.65 0.917-2.5 1.39-0.724 0.415-1.45 0.83-2.19 1.26-1.92 0.769-1.92 0.769-4.92-0.231 24.4-19.7 49.9-30.6 81-35 0.668-0.0976 1.34-0.195 2.03-0.296 14.6-2.1 29.2-3.05 44-2.7 0.993 0.0189 0.993 0.0189 2.01 0.0381 30.6 0.695 60.4 7.12 89 18 0.793 0.296 1.59 0.592 2.4 0.897 26.8 10.1 51.8 23.3 75.6 39.1 1.09 0.724 1.09 0.724 2.21 1.46 4.27 2.83 8.54 5.68 12.8 8.54-0.403-8.05-1.1-16-1.99-24-1.67-15-2.78-30.1-3.76-45.2-0.0708-1.07-0.142-2.14-0.215-3.24-0.2-3.05-0.393-6.1-0.582-9.15-0.0613-0.931-0.123-1.86-0.186-2.82-0.13-2.18-0.205-4.36-0.267-6.54 0.33-0.33 0.66-0.66 1-1z" fill="#0A0503"/>
<path transform="translate(1119 711)" d="m0 0c1.29-0.0374 2.57-0.0748 3.9-0.113 5.5 0.628 8.49 2.99 12 7.11 3 5.89 3.28 11 1.56 17.4-1.61 4.78-3.98 8.84-6.88 12.9-4.88-0.875-4.88-0.875-6-2-0.205-3.56-0.32-7.12-0.426-10.7-0.26-3.35-0.26-3.35-2.39-5.21-5.62-2.84-11.8-2.42-17.7-0.996-7.51 2.73-11.4 8.61-14.8 15.6-5.35 11.9-9.09 24.6-12.6 37.1-2.98 10.7-6.95 21.5-12.8 31-1.51 2.19-1.51 2.19-1.26 5.17 2.04 0.651 4.08 1.3 6.12 1.94 1.14 0.36 2.27 0.719 3.45 1.09 6.62 1.88 13 2.24 19.8 2.35 0.908 0.0374 1.82 0.0748 2.75 0.113 7.75 0.101 12.4-2.17 18-7.51 0.464-0.592 0.928-1.18 1.41-1.79 0.485-0.605 0.969-1.21 1.47-1.83 0.51-0.671 0.51-0.671 1.03-1.36 4.88 1.75 4.88 1.75 6 4-2.21 7.33-6.24 14.6-12.8 18.8-12.1 6.29-26.4 9.06-39.8 5.56-3.32-1.11-6.55-2.34-9.76-3.74-6.8-2.95-13.2-4.84-20.3-2.22-1.1 0.643-2.2 1.29-3.34 1.95-10.4 5.7-20.3 7.32-31.9 4.37-3.9-1.27-7.03-2.67-8.99-6.44-1.47-4.51-1.19-8.05 0.75-12.4 3.46-5.6 9.03-9 15.1-11.2 13.1-3 26.3 0.167 39 3.3 0.15-0.661 0.3-1.32 0.454-2 2.05-8.61 4.7-17 7.51-25.3 0.773-2.31 1.54-4.63 2.3-6.94 2.56-7.73 5.3-15.4 8.38-22.9 0.276-0.681 0.552-1.36 0.837-2.06 7.65-18.3 20-34 38.5-41.7 3.73-1.26 7.46-1.24 11.4-1.31zm-110 109c-0.66 1.32-1.32 2.64-2 4 2.73 3.43 4.79 5.31 9.12 5.88 6.28 0.379 12.9 0.12 18.9-1.88-0.141-1.95-0.141-1.95-1-4-7.59-4.77-16.4-4.45-25-4z" fill="#0A0503"/>
<path transform="translate(955 690)" d="m0 0c2.37 1.67 3.82 3.51 4.73 6.25 0.943 5.68-0.0604 9.87-2.69 14.9-2.11 0.719-2.11 0.719-4 1-0.516-0.825-1.03-1.65-1.56-2.5-2.22-2.75-2.22-2.75-5.44-3.12-10.2 0.789-19.9 6.93-26.5 14.5-20.1 24.9-27.6 56.1-34.2 86.8-0.273 1.26-0.546 2.51-0.828 3.81-0.238 1.11-0.476 2.23-0.722 3.38-0.753 3.12-1.7 6.12-2.76 9.15 0.866-0.33 1.73-0.66 2.62-1 3.33-0.987 5.93-1.16 9.38-1-0.328 6.34-1.24 9.44-6 14-3.63 2.6-7.46 4.89-12 5-4.13-1.28-6.39-2.15-8.94-5.69-0.351-0.763-0.701-1.53-1.06-2.31-4.39 0.225-7 1.52-10.5 4-3.53 2.45-6.06 4.1-10.5 4-4.67-1.68-7.42-3.76-10-8-3.19-7.52-1.55-14.5 1-22 2.74-6.2 5.78-11.6 11-16 0.908-0.846 1.82-1.69 2.75-2.56 8.09-6.48 17.2-7.43 27.2-8.44 0.57-1.83 0.57-1.83 1.15-3.7 2.08-6.23 4.73-12.2 7.41-18.2 0.53-1.19 1.06-2.37 1.61-3.6 12.3-27.2 26.5-54.2 53.8-68.5 4.8-1.6 10.2-2.16 15-0.199zm-99.5 110c-4.87 7.21-7.94 16.5-6.49 25.2 0.66 0.66 1.32 1.32 2 2 5.23-0.584 8.68-4.19 12-8 4.98-7.32 9.7-16 10-25-1.13-1.33-1.13-1.33-4.06-1.38-5.74 0.546-9.68 2.75-13.4 7.14z" fill="#0A0503"/>
<path transform="translate(722,785)" d="m0 0c1.23 3.69 0.657 4.36-0.949 7.8-0.435 0.953-0.869 1.91-1.32 2.89-0.469 1.01-0.938 2.02-1.42 3.07-4.05 8.97-7.27 17.6-9.31 27.2 11.7-5.25 17.3-17.5 23.3-28.3 3-5.31 5.55-9.33 10.7-12.7 3.84-0.391 6.35-0.218 10 1-0.565 4.69-1.49 8.91-3.03 13.4-0.398 1.17-0.797 2.34-1.21 3.54-0.416 1.2-0.833 2.4-1.26 3.64-0.827 2.4-1.65 4.79-2.47 7.19-0.365 1.06-0.731 2.11-1.11 3.2-0.912 3.01-1.48 5.94-1.92 9.05 1.05-0.495 2.1-0.99 3.19-1.5 3.07-1.33 5.43-1.81 8.81-1.5-0.358 5.85-1.8 9.8-6 14-5.13 3-9.21 3.75-15 3-3.24-2.54-5.57-5.11-7-9v-3c-3.68 2.1-6.89 4.48-10.2 7.12-5.17 3.79-9.37 5.59-15.8 4.88-3.22-1.23-4.56-2.5-6.81-5.06-2.16-5.35-1.86-10.8-0.176-16.2 0.951-3.57 1.13-6.37 1.11-10 0.0113-9.2 0.0113-9.2 2.3-13.1 2.09-1.91 4.09-3.2 6.58-4.55 0.975-0.572 1.95-1.14 2.95-1.73 5.48-3 9.77-5.12 16-4.27z" fill="#0A0503"/>
<path transform="translate(787,785)" d="m0 0c3 6.75 3 6.75 3 9 5.05-2.08 9.91-4.42 14.8-6.91 4.33-2.11 8.46-2.88 13.2-2.09 3.06 2 3.06 2 5 5 0.371 6.8-2.78 12.5-5.5 18.6-2.47 5.63-4.51 11.3-5.5 17.4 1.03-0.66 2.06-1.32 3.12-2 3.41-1.97 5.9-2.39 9.88-2 0.684 1.75 0.684 1.75 1 4-3.87 6.6-10.3 10.7-17 14-4.04 0.381-6.29 0.424-9.81-1.69-2.87-3.04-4.11-5.05-4.25-9.29 0.461-8.34 3.43-16.2 6.07-24 0.383-1.15 0.766-2.3 1.16-3.48 0.277-0.83 0.554-1.66 0.84-2.52-1.22 0.644-2.43 1.32-3.62 2-1.01 0.557-1.01 0.557-2.04 1.12-7.28 5.84-10.7 14.5-14.5 22.8-1.03 2.25-2.06 4.5-3.11 6.74-0.449 0.986-0.898 1.97-1.36 2.99-1.35 2.4-1.35 2.4-4.35 4.4-2.7 0.195-2.7 0.195-5.69 0.125-0.994-0.018-1.99-0.0361-3.01-0.0547-1.14-0.0348-1.14-0.0348-2.3-0.0703-1.11-3.33-0.873-5.36 0.109-8.7 0.26-0.898 0.521-1.8 0.789-2.72 0.422-1.4 0.422-1.4 0.852-2.82 0.266-0.917 0.531-1.83 0.805-2.78 1.24-4.22 2.56-8.36 4.15-12.5 1.47-3.36 1.47-3.36 1.3-6.52-2.31-0.66-4.62-1.32-7-2 0.824-5.84 3.52-9.27 8-13 4.93-2.32 9.57-3.15 15-3z" fill="#0A0503"/>
<path transform="translate(1357 786)" d="m0 0c1.2 0.00322 2.4 0.00645 3.63 0.00977 1.86 0.0126 1.86 0.0126 3.75 0.0254 1.26 0.00451 2.52 0.00902 3.82 0.0137 3.1 0.0117 6.2 0.0282 9.3 0.0488 1.22 3.65 0.712 4.22-0.914 7.58-0.429 0.907-0.859 1.81-1.3 2.75-0.465 0.964-0.93 1.93-1.41 2.92-4.13 8.78-7.62 17.4-10.4 26.8 1.07-0.495 2.14-0.99 3.25-1.5 3-1.39 4.21-1.5 7.75-1.5 1.23 2.91 1.01 3.98-0.125 7-3.71 5.94-9.34 8.86-15.9 11-2.81 0.0625-2.81 0.0625-5-1-2.07-2.24-3.64-4.28-5-7-4.48 0.236-7.21 1.66-10.9 4.06-4.83 3-7.49 3.97-13.1 2.94-5.04-3.14-7.3-6.34-9-12-1.58-10.5 3.55-19.1 9.36-27.4 3.54-4.8 7.35-7.89 12.6-10.6 0.63-0.324 1.26-0.647 1.91-0.98 5.73-2.68 11.3-3.15 17.6-3.12zm-18.7 13.1c-4.3 7.12-7.27 15.6-6.81 24 1.24 3.05 1.24 3.05 3 5 9.16-2.84 14.9-13.7 19.7-21.5 1.71-3.31 2.23-5.83 2.31-9.53-7.05-3.76-12-3.69-18.2 2z" fill="#0A0503"/>
<path transform="translate(1208 762)" d="m0 0c1.21 0.0135 1.21 0.0135 2.45 0.0273 0.922 0.0174 0.922 0.0174 1.86 0.0352 1 3 1 3-0.582 6.62-0.734 1.42-1.48 2.84-2.23 4.26-0.737 1.41-1.47 2.83-2.21 4.24-0.497 0.938-0.497 0.938-1 1.89-1.12 2.27-2.04 4.64-2.98 6.99 3.63 0.33 7.26 0.66 11 1 0.495 1.49 0.495 1.49 1 3-0.66 0.99-1.32 1.98-2 3-1.76 0.297-3.53 0.583-5.31 0.769-6.45 0.652-6.45 0.652-11.5 4.38-1.08 2.95-1.69 5.76-2.23 8.86-0.289 1.21-0.578 2.42-0.875 3.66-1.22 5.16-2.32 10-2.12 15.3 3.5-1 6.09-2.06 9.12-4.12 2.88-1.88 2.88-1.88 6.88-1.88 0.341 3.65 0.32 5.5-1.69 8.63-5.74 6.19-10.4 10.8-18.9 11.8-4.95-0.642-8.07-2.09-11.6-5.69-3.29-4.96-1.76-10.1-0.824-15.8 1.54-7.46 3.52-14.8 6-22-1.98-0.33-3.96-0.66-6-1v-4c2.62-2.54 5.14-4.07 8.43-5.66 4.19-2.38 5.7-5.42 7.63-9.71 2.6-5.61 5.25-9.5 9.94-13.6 2.88-0.961 4.7-1.11 7.69-1.06z" fill="#0A0503"/>
<path transform="translate(940 786)" d="m0 0c4.18 2.85 7.12 5.98 8.75 10.9 0.819 11.3-2.66 20.8-9 30-0.866 1.36-0.866 1.36-1.75 2.75-5.62 5.62-13.4 9.99-21.4 10.3-5.38-0.227-8.6-1.74-12.4-5.5-3.6-4.17-3.81-8.45-3.69-13.8 1.37-12.3 7.58-23.4 17-31.2 6.86-4.88 14.5-6.28 22.5-3.5zm-22 17.2c-2.88 6.05-2.8 13-2.25 19.6 0.955 3.13 0.955 3.13 3 5 2.72 1.05 4.25 1.2 7.06 0.438 4.45-3.3 6.49-7.9 7.62-13.2 0.839-5.79 1.14-10.5-1.37-15.8-2.07-2.54-2.07-2.54-4.75-3-4.33 1.06-6.71 3.47-9.31 7z" fill="#0A0503"/>
<path transform="translate(1515 787)" d="m0 0c3.49 2.79 5.77 5.5 7.19 9.75 1.25 12.1-2.9 21.4-10 31-0.619 0.908-1.24 1.82-1.88 2.75-5.24 5.55-11.5 8.52-19.1 9.25-4.94-0.00889-9.08-0.862-13-4-4.02-4.89-4.23-10.5-3.82-16.6 1.65-11.8 8.11-21.4 16.8-29.4 7.52-5.01 15.4-6.47 23.8-2.75zm-21.8 13.8c-2.81 5.38-3.47 9.67-3.38 15.7-0.0116 0.746-0.0232 1.49-0.0352 2.26 0.0229 4.29 0.326 6.96 3.41 10.1 3.73-0.26 5.69-0.762 8.69-3.06 5.06-6.42 5.65-12.2 5.71-20.1-0.501-3.56-1.84-6.27-4.4-8.83-4.67-0.648-6.77 0.681-10 4z" fill="#0A0503"/>
<path transform="translate(1254 787)" d="m0 0c4.85 3.43 4.85 3.43 6.19 6.25 0.515 4.56 0.439 6.98-1.38 11.2-6.87 7.36-17.2 9.38-26.6 11.8 0.144 1.28 0.289 2.56 0.438 3.88 0.0812 0.719 0.162 1.44 0.246 2.18 0.229 2.02 0.229 2.02 1.32 3.95 6.49-0.309 10.6-1.5 16.2-4.94 1.85-1.06 1.85-1.06 3.85-1.06 1.07 3.75 1.24 5.48-0.438 9.06-6 6.88-14 10.1-23 11.3-5.33 0.269-8.45-0.69-12.6-4.32-3.72-4.36-4.11-9.45-4-15 1.48-11.7 7.21-22.4 15.8-30.4 6.96-5.22 15.9-8.14 24-3.88zm-19.7 12c-2.49 3.16-2.49 3.16-2.12 7.25 4.59 0.32 7.44 0.0531 11-3 0.981-3.05 0.981-3.05 1-6-1.1-1.29-1.1-1.29-3.75-1.44-3.51 0.148-3.51 0.148-6.12 3.19z" fill="#0A0503"/>
<path transform="translate(1404 786)" d="m0 0c1.3-0.0213 1.3-0.0213 2.62-0.043 2.38 0.23 2.38 0.23 5.38 2.23v2c2.93-0.418 4.8-0.858 7.25-2.56 3.79-1.98 7.54-2.24 11.8-1.44 1.92 1.57 2.89 2.78 4 5 0.046 4.68-0.424 8.15-3.06 12.1l-1.94 1.94c-0.664-0.202-1.33-0.405-2.01-0.613-0.883-0.231-1.77-0.461-2.68-0.699-0.87-0.244-1.74-0.487-2.64-0.738-2.89-0.214-2.89-0.214-5.32 2.13-2.35 2.91-3.85 5.5-5.36 8.92-0.754 1.7-0.754 1.7-1.52 3.44-1.87 4.51-3.58 9.08-5.2 13.7-1.65 3.72-3.55 7.01-7.27 8.88-2.06 0.168-2.06 0.168-4.44 0.188-0.782 0.0142-1.56 0.0284-2.37 0.043-2.19-0.23-2.19-0.23-5.19-2.23 0.613-6.13 2.4-11.6 4.44-17.4 2.27-6.5 4.19-12.9 5.56-19.6-2.64 0.33-5.28 0.66-8 1-0.66-1.32-1.32-2.64-2-4 4.38-7.24 9.07-12.1 18-12.2z" fill="#0A0503"/>
<path transform="translate(1289,785)" d="m0 0c1.35 1.31 2.69 2.65 4 4 2.59 0.501 2.59 0.501 5 0 0.66-0.66 1.32-1.32 2-2 2.86-0.955 5.55-1.16 8.56-1.19 0.764-0.0142 1.53-0.0284 2.32-0.043 2.12 0.23 2.12 0.23 5.12 2.23 1.94 5.17 0.194 9.04-1.7 13.9-1.3 2.07-1.3 2.07-3.29 2.93-2.7 0.194-4.52-0.859-7.01-1.86-2.71 0.243-3.74 0.724-5.61 2.73-5.9 9.16-9.65 19.2-13.6 29.3-0.829 1.96-0.829 1.96-1.83 2.96-2.35 0.0727-4.71 0.0837-7.06 0.0625-1.29-0.00902-2.58-0.018-3.91-0.0273-0.999-0.0116-2-0.0232-3.03-0.0352-0.236-5.26 0.481-9.27 2.19-14.2 0.222-0.656 0.444-1.31 0.673-1.99 0.703-2.07 1.42-4.14 2.14-6.2 0.483-1.41 0.965-2.83 1.45-4.24 1.17-3.44 2.36-6.88 3.55-10.3h-11c0.0673-3.37 0.196-6.01 2.38-8.7 5.26-4.68 11.3-8.44 18.6-7.3z" fill="#0A0503"/>
<path transform="translate(1465,787)" d="m0 0c-0.507 6.55-2.27 11.8-4.81 17.9-0.344 0.834-0.687 1.67-1.04 2.53-0.691 1.68-1.38 3.35-2.08 5.03-1.73 4.17-3.4 8.37-5.06 12.6 0.563-0.241 1.13-0.481 1.71-0.729 4.11-1.73 6.88-2.79 11.3-1.27 0 4.66-1.52 6.94-4.62 10.2-4.75 4.43-8.46 6.57-15.1 7.12-3.1-0.293-4.83-0.475-7.31-2.31-2.74-4.51-2.51-8.87-2-14 0.455-1.56 0.956-3.1 1.5-4.62 1.83-5.29 1.65-10.2 1.21-15.8-0.186-3.86 0.0934-5.38 2.55-8.43 7.16-5.73 14.2-10.5 23.7-8.19z" fill="#0A0503"/>
<path transform="translate(1162,787)" d="m0 0c-0.27 6.75-2.55 12-5.3 18.1-1.86 4.19-3.48 8.47-5.07 12.8-0.263 0.708-0.525 1.42-0.796 2.15-0.612 1.66-1.22 3.32-1.83 4.98 3.63-0.99 7.26-1.98 11-3 0.66 1.32 1.32 2.64 2 4-3.45 6.15-8.67 10.8-15 14-4.88 0.488-7.11 0.463-11.5-1.81-2.45-2.43-2.96-4.33-3.12-7.75 0.326-6.61 1.86-13.1 3.38-19.5 0.188-0.834 0.375-1.67 0.569-2.53 0.178-0.747 0.356-1.49 0.54-2.26 0.172-2.59-0.535-3.92-1.86-6.12 3.58-3.85 7.14-6.53 11.7-9.25 0.581-0.351 1.16-0.701 1.76-1.06 5.35-3.21 7.3-3.73 13.6-2.69z" fill="#0A0503"/>
<path transform="translate(1476 756)" d="m0 0c2.19 1 2.19 1 4.19 3-0.173 4.78-2.63 7.32-5.69 10.8-3.59 4.13-6.94 8.3-9.96 12.9-1.35 1.33-1.35 1.33-5.35 1.33-1.4-4.19-1.93-7.64-1-12 2.23-3.77 4.97-6.85 8-10 0.632-0.66 1.26-1.32 1.91-2 4.2-4 4.2-4 7.9-4z" fill="#0A0503"/>
<path transform="translate(1177,758)" d="m0 0c-0.545 3.79-1.47 6.07-3.84 9.07-0.57 0.733-1.14 1.47-1.73 2.22-0.598 0.751-1.2 1.5-1.81 2.28-0.59 0.755-1.18 1.51-1.79 2.29-1.1 1.41-2.21 2.81-3.32 4.22-1.54 1.96-3.03 3.94-4.52 5.94-1.32-0.33-2.64-0.66-4-1-1.61-4.5-2.66-7.54-0.625-12 3.34-5.71 7.86-10.6 13.8-13.6 2.94-0.457 4.97-0.273 7.81 0.562z" fill="#0A0503"/>
</svg>
